<svg xmlns="http://www.w3.org/2000/svg" viewBox="0 0 500 500"><g id="freepik--background-complete--inject-4"><path d="M100.14,427,91.51,429A28.61,28.61,0,1,1,95,419.4v0Z" style="fill:#ebebeb"></path><path d="M100.14,427s-.09-.16-.3-.48l-1-1.45-3.79-5.7a.09.09,0,0,0-.13,0l0,0v0l.19.05a28.48,28.48,0,0,0-1-14,27.91,27.91,0,0,0-1.74-4.08,30.8,30.8,0,0,0-2.56-4,28.53,28.53,0,0,0-18.33-11,28.85,28.85,0,0,0-12.31.69A28.8,28.8,0,0,0,40,404.64l-.59,1.67L38.94,408l-.21.86-.14.86-.26,1.73c-.07.57-.08,1.16-.12,1.73a14.28,14.28,0,0,0,0,1.73,24.12,24.12,0,0,0,.25,3.41A28.64,28.64,0,0,0,62.89,443a28.49,28.49,0,0,0,10.4-.45,33.13,33.13,0,0,0,4.55-1.44,37.57,37.57,0,0,0,4-2,28.38,28.38,0,0,0,9.79-10l-.06,0,6.44-1.6,1.64-.41.53-.14-.58.12-1.67.38-6.4,1.46a.12.12,0,0,0-.07.05,28.52,28.52,0,0,1-9.78,9.87,38.93,38.93,0,0,1-3.93,2,32,32,0,0,1-4.5,1.39,28.44,28.44,0,0,1-29.78-11.79,28.71,28.71,0,0,1-4.55-12.14,25,25,0,0,1-.25-3.36,13.83,13.83,0,0,1,0-1.7c0-.56,0-1.13.12-1.7l.26-1.7.13-.85.22-.84.42-1.68.58-1.64A27.66,27.66,0,0,1,48,393.64a28,28,0,0,1,11.27-6.25,28.31,28.31,0,0,1,30.24,10.13,30.14,30.14,0,0,1,2.55,4,26.94,26.94,0,0,1,1.74,4,28.62,28.62,0,0,1,1.15,13.87.09.09,0,0,0,.18.06v0l-.17,0c1.67,2.43,3,4.29,3.85,5.57.43.63.77,1.11,1,1.45S100.14,427,100.14,427Z" style="fill:#ebebeb"></path><path d="M74.26,234.72,68.88,236a17.81,17.81,0,1,1,2.18-6h0Z" style="fill:#ebebeb"></path><path d="M74.26,234.72l-.19-.3c-.14-.21-.34-.51-.59-.91-.55-.81-1.34-2-2.37-3.55a.06.06,0,0,0-.08,0l0,0h0l.12,0a17.87,17.87,0,0,0-1.74-11.29,20.73,20.73,0,0,0-1.6-2.51,17.93,17.93,0,0,0-19.13-6.46,18,18,0,0,0-11.95,11l-.37,1-.27,1.07-.13.53-.09.54-.16,1.08c0,.36,0,.72-.07,1.08a9.74,9.74,0,0,0,0,1.08,16.68,16.68,0,0,0,.16,2.13A17.9,17.9,0,0,0,51,244.74a17.91,17.91,0,0,0,6.49-.28,20.06,20.06,0,0,0,2.84-.9,25,25,0,0,0,2.48-1.26A17.82,17.82,0,0,0,68.93,236l0,0,4-1,1-.26.33-.09-.36.08-1,.23-4,.91,0,0a17.71,17.71,0,0,1-6.1,6.16,22.6,22.6,0,0,1-2.46,1.24,19.62,19.62,0,0,1-2.81.87,17.66,17.66,0,0,1-6.4.26,17.62,17.62,0,0,1-15-15.19,16.35,16.35,0,0,1-.15-2.1,7.51,7.51,0,0,1,0-1.06c0-.36,0-.71.07-1.07l.16-1.06.08-.53.14-.52.26-1.05.36-1A17.69,17.69,0,0,1,48.73,210a17.72,17.72,0,0,1,14.16,2,17.65,17.65,0,0,1,4.71,4.31,18.44,18.44,0,0,1,1.59,2.47,16,16,0,0,1,1.09,2.51A17.89,17.89,0,0,1,71,230a.05.05,0,0,0,0,.07s0,0,.06,0H71c1,1.51,1.85,2.68,2.4,3.48l.63.9Z" style="fill:#ebebeb"></path><path d="M422.51,346.63l2-4.1a14.66,14.66,0,0,1,16.68-19.4,14.66,14.66,0,1,1-14,23.94h0Z" style="fill:#ebebeb"></path><path d="M422.51,346.63l.29,0,.89.1,3.49.36a0,0,0,0,0,.06,0,0,0,0,0,0,0,0h0l-.08.06a14.7,14.7,0,0,0,5.89,4.17,15.56,15.56,0,0,0,2.19.65,17,17,0,0,0,2.43.29A14.71,14.71,0,0,0,453,336.84a14.49,14.49,0,0,0-2-6.76l-.47-.78-.54-.73-.26-.36-.3-.34-.6-.67c-.21-.22-.43-.41-.65-.61a6.28,6.28,0,0,0-.67-.59,12.75,12.75,0,0,0-1.43-1,15,15,0,0,0-6.41-2.2,14.78,14.78,0,0,0-11.38,3.82,14.61,14.61,0,0,0-3.22,4.27,15.89,15.89,0,0,0-.92,2.27,19.61,19.61,0,0,0-.5,2.23,14.53,14.53,0,0,0,.77,7.17v0L423,345.59c-.16.33-.29.59-.37.78a2,2,0,0,0-.12.26l.14-.27.4-.79c.34-.69.85-1.7,1.51-3,0,0,0,0,0,0a14.61,14.61,0,0,1-.7-7.1,18.84,18.84,0,0,1,.5-2.21,15.57,15.57,0,0,1,.92-2.24A14.61,14.61,0,0,1,439.7,323a14.74,14.74,0,0,1,6.3,2.17,12.43,12.43,0,0,1,1.41,1,7.09,7.09,0,0,1,.66.57c.21.2.44.39.64.61l.59.66.29.33.26.36.53.71.46.77a14.26,14.26,0,0,1,2,6.65,14.45,14.45,0,0,1-1.21,6.52,14.64,14.64,0,0,1-8.71,7.93,14.48,14.48,0,0,1-5.2.73,15.44,15.44,0,0,1-2.41-.28,13.94,13.94,0,0,1-2.16-.63,14.77,14.77,0,0,1-5.88-4.09s-.05,0-.07,0,0,0,0,.06h0l.05-.07-3.47-.3-.9-.07Z" style="fill:#ebebeb"></path><path d="M219.32,331.13l-4.4,1.2a14.64,14.64,0,1,1,1.64-5h0Z" style="fill:#ebebeb"></path><path d="M219.32,331.13l-.16-.24-.52-.73-2-2.87a0,0,0,0,0-.07,0l0,0h0l.1,0a14.72,14.72,0,0,0-.78-7.18,13.68,13.68,0,0,0-1-2.07,16.07,16.07,0,0,0-1.38-2,14.78,14.78,0,0,0-15.92-4.8,14.81,14.81,0,0,0-9.54,9.4l-.27.87-.2.89-.09.44-.06.45-.11.89c0,.29,0,.59,0,.89a6.61,6.61,0,0,0,0,.89,12.66,12.66,0,0,0,.19,1.75,15,15,0,0,0,2.59,6.25,14.73,14.73,0,0,0,4.77,4.23,15,15,0,0,0,5.62,1.78,14.66,14.66,0,0,0,5.34-.41,15,15,0,0,0,2.31-.81,18.92,18.92,0,0,0,2-1.11,14.6,14.6,0,0,0,4.87-5.32l0,0,3.29-.93.83-.24.27-.08-.29.07-.86.22-3.26.86,0,0a14.76,14.76,0,0,1-4.86,5.23,17,17,0,0,1-2,1.08,15.42,15.42,0,0,1-2.29.8,14.63,14.63,0,0,1-10.8-1.39,14.45,14.45,0,0,1-7.24-10.33,13.92,13.92,0,0,1-.18-1.72,6.44,6.44,0,0,1,0-.88c0-.29,0-.58,0-.87l.11-.88,0-.44.1-.43.19-.88.27-.85a14.26,14.26,0,0,1,3.69-5.86,14.42,14.42,0,0,1,5.69-3.41,14.62,14.62,0,0,1,11.71,1.29,14.42,14.42,0,0,1,4,3.42,17.57,17.57,0,0,1,1.37,2,13.49,13.49,0,0,1,1,2.05,14.47,14.47,0,0,1,.82,7.1.06.06,0,0,0,.05.06.05.05,0,0,0,0,0h-.08l2.07,2.8.54.73Z" style="fill:#ebebeb"></path><path d="M174.44,123.43l2-4.09a14.72,14.72,0,1,1,2.67,4.53h0Z" style="fill:#ebebeb"></path><path d="M174.44,123.43l.29,0,.89.1,3.5.36a.07.07,0,0,0,.06,0s0,0,0,0h0l-.09.06a14.66,14.66,0,0,0,5.89,4.16,13.59,13.59,0,0,0,2.19.65,15.82,15.82,0,0,0,2.43.3,14.46,14.46,0,0,0,5.28-.73,14.76,14.76,0,0,0,5.1-2.92,14.92,14.92,0,0,0,3.76-5.1,14.73,14.73,0,0,0,1.24-6.62,14.35,14.35,0,0,0-2-6.76l-.46-.78-.54-.73-.27-.37-.3-.33-.59-.67c-.21-.22-.44-.41-.65-.62s-.43-.41-.67-.58a15.67,15.67,0,0,0-1.44-1,14.76,14.76,0,0,0-21,5.89,15.54,15.54,0,0,0-.92,2.28,17.59,17.59,0,0,0-.49,2.23,14.53,14.53,0,0,0,.77,7.17v0l-1.48,3.07-.37.78-.12.26.14-.27c.1-.18.23-.44.4-.78l1.52-3v0a14.62,14.62,0,0,1-.71-7.11,19.15,19.15,0,0,1,.5-2.2,17,17,0,0,1,.92-2.24,14.84,14.84,0,0,1,3.2-4.21A14.53,14.53,0,0,1,197.94,102a13.5,13.5,0,0,1,1.41,1,7.09,7.09,0,0,1,.66.57c.21.2.43.39.64.6l.58.66.3.33.26.36.53.72.46.77a14.58,14.58,0,0,1,.74,13.16,14.63,14.63,0,0,1-3.7,5,14.54,14.54,0,0,1-10.22,3.63,16.76,16.76,0,0,1-2.4-.28,15.28,15.28,0,0,1-2.17-.63,14.65,14.65,0,0,1-5.87-4.09,0,0,0,0,0-.07,0s0,0,0,.06h0l0-.07-3.47-.3-.9-.07Z" style="fill:#ebebeb"></path><path d="M448.53,65.88l-6.14,1.47a20.26,20.26,0,1,1,2.49-6.84h0Z" style="fill:#ebebeb"></path><path d="M448.53,65.88l-.22-.34-.68-1-2.69-4.05a.08.08,0,0,0-.1,0l0,0h0l.14,0a20.35,20.35,0,0,0-.75-10,19,19,0,0,0-1.24-2.9,21.74,21.74,0,0,0-1.82-2.86A20.33,20.33,0,0,0,411.22,42,20,20,0,0,0,405.76,50l-.42,1.19L405,52.43l-.15.6-.1.62-.18,1.22c-.05.41-.06.83-.09,1.24s-.06.82,0,1.22a17.82,17.82,0,0,0,.18,2.43,20.68,20.68,0,0,0,3.3,8.76A20.44,20.44,0,0,0,429.44,77a22.71,22.71,0,0,0,3.24-1,27.34,27.34,0,0,0,2.81-1.44,20.12,20.12,0,0,0,7-7.13l0,0L447,66.28l1.16-.29.38-.11-.42.09-1.18.27-4.55,1a.09.09,0,0,0-.05,0,20.25,20.25,0,0,1-6.95,7,27.92,27.92,0,0,1-2.79,1.4,22.54,22.54,0,0,1-3.2,1,20.06,20.06,0,0,1-24.4-17,17.36,17.36,0,0,1-.18-2.39c0-.4,0-.8,0-1.21s0-.81.08-1.21l.19-1.21.09-.6.16-.6.3-1.19.41-1.17a20.13,20.13,0,0,1,13.38-12.38,20.18,20.18,0,0,1,16.12,2.3,20,20,0,0,1,5.37,4.9,22.44,22.44,0,0,1,1.82,2.82A19.56,19.56,0,0,1,444,50.64a20.35,20.35,0,0,1,.82,9.86.07.07,0,0,0,.05.08.06.06,0,0,0,.08,0h-.12l2.74,4,.71,1Z" style="fill:#ebebeb"></path><path d="M398.73,451.09,402,444.4a24,24,0,1,1,4.36,7.4h0Z" style="fill:#ebebeb"></path><path d="M398.73,451.09l.48.06,1.44.15,5.71.6a.1.1,0,0,0,.1-.08s0,0,0,0h0l-.14.09a24.1,24.1,0,0,0,9.62,6.8,23.6,23.6,0,0,0,3.57,1.06,26.31,26.31,0,0,0,4,.48,23.84,23.84,0,0,0,8.62-1.18,24.21,24.21,0,0,0,14.45-13.1,23.93,23.93,0,0,0,2-10.8,23.59,23.59,0,0,0-3.23-11l-.77-1.27-.87-1.2-.44-.59-.49-.55-1-1.09c-.34-.36-.71-.67-1.06-1a11,11,0,0,0-1.09-1,23.75,23.75,0,0,0-2.35-1.66,24.51,24.51,0,0,0-10.45-3.58,24.18,24.18,0,0,0-18.57,6.23,23.87,23.87,0,0,0-5.26,7,26.2,26.2,0,0,0-1.5,3.71,30.33,30.33,0,0,0-.81,3.64,23.67,23.67,0,0,0,1.26,11.69v-.06c-1.05,2.18-1.86,3.86-2.41,5l-.6,1.27c-.14.29-.2.43-.2.43s.09-.16.23-.45.37-.72.65-1.28l2.48-4.92a.06.06,0,0,0,0-.06,23.87,23.87,0,0,1-1.16-11.6,31.86,31.86,0,0,1,.82-3.6,26.87,26.87,0,0,1,1.5-3.66,23.77,23.77,0,0,1,5.22-6.86,23.63,23.63,0,0,1,28.6-2.56,21.41,21.41,0,0,1,2.3,1.64,13.58,13.58,0,0,1,1.08.93c.34.33.71.64,1,1l1,1.07.48.54.43.59.86,1.17.75,1.26a23.22,23.22,0,0,1,3.18,10.85,23.61,23.61,0,0,1-2,10.63,23.74,23.74,0,0,1-22.71,14.14,25.63,25.63,0,0,1-3.92-.47,23.53,23.53,0,0,1-3.54-1,24,24,0,0,1-9.58-6.67.08.08,0,0,0-.12,0s0,.06,0,.1h0l.08-.12-5.66-.49-1.48-.12Z" style="fill:#ebebeb"></path></g><g id="freepik--Floor--inject-4"><path d="M469.63,474c0,.15-97.06.26-216.76.26S36.1,474.17,36.1,474s97-.26,216.77-.26S469.63,473.88,469.63,474Z" style="fill:#263238"></path></g><g id="freepik--Character--inject-4"><path d="M241,130.57a4.58,4.58,0,0,1-1.49-9,4.76,4.76,0,0,1,4.55-7.8,5.7,5.7,0,0,1,8.82-4.23,6.41,6.41,0,0,1,7.88.24,4.56,4.56,0,0,1,3.63,7.93" style="fill:#263238"></path><path d="M240.28,131.18a19.41,19.41,0,0,1,20.21-16.87l1,0c10.79,1.17,15.83,11,14.36,21.75l-3.36,36-.18,1.75-25.23,3.76.49-9.18s-10.33-2.14-9.94-12.55C237.83,150.83,239.06,140.51,240.28,131.18Z" style="fill:#ffbf9d"></path><path d="M247.5,168.39a25.24,25.24,0,0,0,13.83-3.32s-3.58,7.33-13.92,5.88Z" style="fill:#ff9a6c"></path><path d="M242.87,141.23a1.48,1.48,0,0,0,1.36,1.57,1.42,1.42,0,0,0,1.59-1.26,1.48,1.48,0,0,0-1.35-1.57A1.41,1.41,0,0,0,242.87,141.23Z" style="fill:#263238"></path><path d="M242.26,136.38c.18.21,1.35-.57,2.94-.49s2.74.94,2.92.76-.08-.45-.57-.84a4.12,4.12,0,0,0-2.33-.85,3.89,3.89,0,0,0-2.35.64C242.36,136,242.18,136.29,242.26,136.38Z" style="fill:#263238"></path><path d="M257.41,142a1.5,1.5,0,0,0,1.36,1.57,1.43,1.43,0,0,0,1.6-1.27,1.49,1.49,0,0,0-1.36-1.57A1.43,1.43,0,0,0,257.41,142Z" style="fill:#263238"></path><path d="M258,137.46c.17.2,1.34-.57,2.94-.49s2.73.94,2.91.76-.08-.45-.57-.84a4.12,4.12,0,0,0-2.32-.85,3.9,3.9,0,0,0-2.36.64C258.06,137,257.88,137.37,258,137.46Z" style="fill:#263238"></path><path d="M251.57,149a10.58,10.58,0,0,0-2.57-.6c-.41-.06-.79-.16-.84-.44a2.12,2.12,0,0,1,.33-1.2c.43-1,.89-2,1.36-3,1.9-4.34,3.29-7.92,3.12-8s-1.86,3.38-3.75,7.72l-1.32,3.07a2.4,2.4,0,0,0-.29,1.59,1.06,1.06,0,0,0,.64.64,3.42,3.42,0,0,0,.69.13A10.74,10.74,0,0,0,251.57,149Z" style="fill:#263238"></path><path d="M257.62,133.81c.19.42,1.59.05,3.28.08s3.09.38,3.27,0c.07-.2-.21-.57-.8-.93a5.15,5.15,0,0,0-2.5-.66,4.88,4.88,0,0,0-2.48.63C257.81,133.24,257.54,133.61,257.62,133.81Z" style="fill:#263238"></path><path d="M242.51,129.79c.32.37,1.66.06,3.25.12s2.92.39,3.25,0c.14-.18,0-.55-.62-.92a5.13,5.13,0,0,0-2.61-.73,5.07,5.07,0,0,0-2.62.6C242.58,129.24,242.37,129.6,242.51,129.79Z" style="fill:#263238"></path><path d="M241.52,126.46s3.07-6.38,6.28-7.75c3.9-1.65,5.33,2.61,9,1.78s7.4-2.42,11,.56c3.91,3.27,1.9,5.33,1.92,10,.09,18.77,3.24,24.23,4.65,15.46.16-1,2.87-1.6,3.47-5.66.78-5.26,1.3-11.68.31-15.49-.84-3.22-2.53-5.49-5.65-8.06-4.92-4.06-11.93-4.49-16.72-4.25S241.49,118.28,241.52,126.46Z" style="fill:#263238"></path><path d="M273.68,146.15a2.83,2.83,0,0,1,3.19-2.57c1.93.29,4,1.49,3.7,5.5-.58,7.1-7.59,5-7.58,4.85S273.41,149.12,273.68,146.15Z" style="fill:#ffbf9d"></path><path d="M274.75,151.38s.12.1.32.21a1.27,1.27,0,0,0,.92.1,3.06,3.06,0,0,0,1.64-2.64,3.89,3.89,0,0,0-.2-1.79,1.43,1.43,0,0,0-.85-1,.64.64,0,0,0-.76.28c-.11.19-.08.34-.11.34s-.15-.13-.07-.42A.8.8,0,0,1,276,146a1,1,0,0,1,.7-.12,1.74,1.74,0,0,1,1.2,1.2,4.18,4.18,0,0,1,.27,2c-.16,1.43-1,2.71-2.06,2.92a1.33,1.33,0,0,1-1.11-.28C274.75,151.55,274.73,151.39,274.75,151.38Z" style="fill:#ff9a6c"></path><path d="M274.23,132.37a6.93,6.93,0,0,1-3.08,1.24,2.34,2.34,0,0,1-2.5-1.76c-.06-.5.09-1.07-.21-1.47s-1.09-.37-1.69-.33a4.55,4.55,0,0,1-4.55-3.49,1.92,1.92,0,0,1-2.57.11,10.17,10.17,0,0,1-1.84-2.17,2.93,2.93,0,0,0-2.38-1.34,6.53,6.53,0,0,1-1.56.26c-.93-.13-1.33-1.24-1.43-2.18s-.15-2-.92-2.56a3.71,3.71,0,0,0-2.54-.2c-.86.09-2-.17-2.14-1a1.74,1.74,0,0,1,.38-1.28,4.62,4.62,0,0,1,5.53-1.47,6.25,6.25,0,0,1,11.53-.64,6.33,6.33,0,0,1,10,2.81,4.6,4.6,0,0,1,4.85,6.94,4.36,4.36,0,0,1,2.23,3.59c-.05,1.48-1.55,2.87-3,2.41a2.54,2.54,0,0,1-4.52,2.32" style="fill:#263238"></path><path d="M252.09,116.78v.13a2.06,2.06,0,0,0,0,.38,4.2,4.2,0,0,0,.44,1.39,5.06,5.06,0,0,0,1.5,1.76,4.7,4.7,0,0,0,2.87,1l-.11-.16a2.59,2.59,0,0,0,0,2A7.69,7.69,0,0,0,258,125a5.88,5.88,0,0,0,.76.85,2.46,2.46,0,0,0,1.11.48,2.61,2.61,0,0,0,2.33-.71l-.27-.09a5.38,5.38,0,0,0,2.08,3.81,3.93,3.93,0,0,0,2.3.88,7.16,7.16,0,0,0,2.33-.39l-.19-.1a5.54,5.54,0,0,0,1.58,2.28,3,3,0,0,0,2.44.8,3.91,3.91,0,0,0,3.17-2.92l-.16.07a3.65,3.65,0,0,0,2.42.48,4,4,0,0,0,1.74-.67,3.43,3.43,0,0,0,.84-.83,1.5,1.5,0,0,0,.2-.36,3.83,3.83,0,0,1-2.8,1.69,3.56,3.56,0,0,1-2.29-.49l-.13-.09,0,.15a3.7,3.7,0,0,1-3,2.7,2.73,2.73,0,0,1-2.22-.75,5.3,5.3,0,0,1-1.47-2.16l-.05-.13-.14,0a7,7,0,0,1-2.23.37,3.61,3.61,0,0,1-2.12-.82,5.08,5.08,0,0,1-2-3.59l0-.33-.24.25a2.4,2.4,0,0,1-3,.21,5.64,5.64,0,0,1-.71-.81,7.24,7.24,0,0,1-1.11-1.73,2.3,2.3,0,0,1-.06-1.78l.06-.17h-.17a4.6,4.6,0,0,1-2.76-.89,5.15,5.15,0,0,1-1.49-1.67A6,6,0,0,1,252.09,116.78Z" style="fill:#455a64"></path><path d="M250.73,153.25l4.21-1.34a7.5,7.5,0,0,1,.61,2.16,2.5,2.5,0,0,1-.7,2.06,2.78,2.78,0,0,1-1.41.62,2.58,2.58,0,0,1-1.67-.2,2.25,2.25,0,0,1-1-1.3,6.5,6.5,0,0,1-.24-1.64" style="fill:#ff9a6c"></path><path d="M251.92,156.65a5.25,5.25,0,0,0,1.71-.25,2.6,2.6,0,0,0,1.35-1.13,3.54,3.54,0,0,0,.27-2.17,3.19,3.19,0,0,0-.35-1l.31.11a15.23,15.23,0,0,1-4.81,1.28c0-.13,2-.69,4.62-1.76l.21-.08.11.19a3.94,3.94,0,0,1,.06,3.7,2.81,2.81,0,0,1-1.65,1.25A2.12,2.12,0,0,1,251.92,156.65Z" style="fill:#263238"></path><path d="M248.85,444.31l.34,19.19s-19.4,6.79-19.68,10.35l37.24.68.7-29.93Z" style="fill:#263238"></path><path d="M260.73,462.1a1.52,1.52,0,0,1,1,1.75,1.46,1.46,0,0,1-1.73,1A1.6,1.6,0,0,1,259,463a1.52,1.52,0,0,1,1.92-.87" style="fill:#e0e0e0"></path><path d="M266.75,474.53l-.05-3L231,472s-1.67.7-1.51,1.87Z" style="fill:#455a64"></path><path d="M248.59,463.3c0,.18.91.28,1.79.88s1.35,1.38,1.52,1.31-.08-1.12-1.17-1.83S248.55,463.13,248.59,463.3Z" style="fill:#fff"></path><path d="M244.65,464.85c0,.17.74.5,1.34,1.28s.77,1.59.95,1.59.32-1-.45-2S244.66,464.67,244.65,464.85Z" style="fill:#fff"></path><path d="M242.35,469.48c.16,0,.43-.86,0-1.87s-1.3-1.41-1.38-1.26.44.69.8,1.52S242.17,469.46,242.35,469.48Z" style="fill:#fff"></path><path d="M249,458.92c.07.17.91-.07,1.94,0s1.82.43,1.91.27-.66-.81-1.87-.9S248.91,458.78,249,458.92Z" style="fill:#fff"></path><path d="M294.28,443.14l2,23.13L292.62,485a2.38,2.38,0,0,0,2,2.82h0a2.36,2.36,0,0,0,2.05-.75c3.32-3.62,15.46-17,15.22-18.67-.28-2-.51-24.55-.51-24.55Z" style="fill:#263238"></path><path d="M294.65,487.85l17.17-21,.06,1a3.58,3.58,0,0,1-.7,2.38C309.82,472,306,477,296.77,487.1a2.37,2.37,0,0,1-2.12.75Z" style="fill:#455a64"></path><g style="opacity:0.6000000000000001"><path d="M306.58,459.69a1.45,1.45,0,0,0-.27,1.9,1.37,1.37,0,0,0,1.88.29,1.51,1.51,0,0,0,.28-2,1.44,1.44,0,0,0-2-.08" style="fill:#fff"></path></g><path d="M299.3,477.38a7.6,7.6,0,0,0-2.15-1.67,7.15,7.15,0,0,0-2.7-.34c0-.05.26-.25.8-.36a3.79,3.79,0,0,1,3.75,1.55C299.3,477,299.36,477.36,299.3,477.38Z" style="fill:#fff"></path><path d="M297.85,480.59a19,19,0,0,0-2.12-.86,17.8,17.8,0,0,0-2.28-.15,2.65,2.65,0,0,1,2.4-.35C297.24,479.54,298,480.52,297.85,480.59Z" style="fill:#fff"></path><path d="M302.12,473.21a24,24,0,0,0-3.18-1.56,24.43,24.43,0,0,0-3.49-.58,6.52,6.52,0,0,1,6.67,2.14Z" style="fill:#fff"></path><path d="M302.09,466.12c0,.15-1.36-.31-3-.26s-3,.53-3,.39a5.92,5.92,0,0,1,6.06-.13Z" style="fill:#fff"></path><path d="M301.67,459.32a11.76,11.76,0,0,0-3.15-.36,11.37,11.37,0,0,0-3,1c0-.05.2-.35.71-.7a5.2,5.2,0,0,1,4.64-.46C301.41,459,301.7,459.26,301.67,459.32Z" style="fill:#fff"></path><path d="M298.48,457.66a1.84,1.84,0,0,1-.09-.87,5.88,5.88,0,0,1,.55-2.34,2.73,2.73,0,0,1,1.07-1.37,1,1,0,0,1,1.09.15,1.6,1.6,0,0,1,.44,1,3.35,3.35,0,0,1-2.75,3.29,3.89,3.89,0,0,1-4-1.79,1.35,1.35,0,0,1-.14-1.12,1,1,0,0,1,.95-.56,3.3,3.3,0,0,1,1.58.7,6.73,6.73,0,0,1,1.7,1.7c.32.47.43.76.4.78a10.58,10.58,0,0,0-2.3-2.18,3,3,0,0,0-1.39-.57.5.5,0,0,0-.52.3.92.92,0,0,0,.13.73A3.49,3.49,0,0,0,298.7,457a2.92,2.92,0,0,0,2.37-2.76,1.12,1.12,0,0,0-.28-.73.51.51,0,0,0-.6-.08,2.47,2.47,0,0,0-.93,1.13A9,9,0,0,0,298.48,457.66Z" style="fill:#fff"></path><path d="M230.75,284A82.69,82.69,0,0,0,229,308.3c.4,5.15,17.79,147.74,17.79,147.74h23.48l-6.6-134,1.93.41s12.81,57.16,13.86,66.41c.94,8.32,11.75,68.75,11.75,68.75l21.47.24-6.85-79.92-8-76.7-3-22.32Z" style="fill:#263238"></path><path d="M267.33,308.35a4.7,4.7,0,0,1-1,.56,11.68,11.68,0,0,1-2.91,1,6,6,0,0,1-2.17,0,4.41,4.41,0,0,1-2.26-1.09,5.29,5.29,0,0,1-1.37-2.39c-.28-.92-.44-1.87-.63-2.83-.75-3.87-1.26-7.4-1.55-10-.15-1.28-.25-2.32-.3-3a5.43,5.43,0,0,1,0-1.13,5.37,5.37,0,0,1,.22,1.11c.12.81.28,1.82.46,3,.38,2.55.94,6.06,1.69,9.92.38,1.9.64,3.84,1.83,5a4.85,4.85,0,0,0,4.05,1.06,13.47,13.47,0,0,0,2.89-.85A6.13,6.13,0,0,1,267.33,308.35Z" style="fill:#455a64"></path><path d="M260.26,290.18s.15-.12.48-.14a2,2,0,0,1,1.31.42,2.34,2.34,0,0,1,1,1.81,2.32,2.32,0,0,1-4,1.49,2.35,2.35,0,0,1-.45-2,2.13,2.13,0,0,1,.71-1.18c.27-.2.45-.23.46-.21a2.63,2.63,0,0,0-.82,1.46,2.08,2.08,0,0,0,.44,1.65,1.77,1.77,0,0,0,1.94.36,1.74,1.74,0,0,0,1.22-1.55,2,2,0,0,0-.74-1.53A2.63,2.63,0,0,0,260.26,290.18Z" style="fill:#455a64"></path><path d="M164.43,199.8l12.35,4.35,13.49,17.48-3.68,6.12-3.65-3.28s-13.89-2.48-14.88-4.37a3.55,3.55,0,0,1,.14-3.52,7.78,7.78,0,0,1-.11-3.68,2.43,2.43,0,0,1,1.74-1.84,1.81,1.81,0,0,1-.87-2.46,3.28,3.28,0,0,1,2-2.22s-8.28-3.77-9-4.84a.86.86,0,0,1,.09-1.06A2.11,2.11,0,0,1,164.43,199.8Z" style="fill:#ffbf9d"></path><path d="M192.39,218l-2.49-3.35-5.39-9.35-12-3.1s-2,.91.77,4.34a7.43,7.43,0,0,0,6.7,2.73s-.85,7.46,1.27,10.79,7.84,3.62,7.84,3.62Z" style="fill:#ffbf9d"></path><path d="M181.11,220.57a3.1,3.1,0,0,1-.53-.74,11,11,0,0,1-1-2.28,12.31,12.31,0,0,1,.34-8.15l.19.34-.43-.07a14.82,14.82,0,0,1-4.53-1.27,5.81,5.81,0,0,1-2.74-2.72,4.09,4.09,0,0,1-.38-2.57,1.77,1.77,0,0,1,.36-.88s-.1.32-.17.91a4.18,4.18,0,0,0,.5,2.39,5.67,5.67,0,0,0,2.63,2.47,15.63,15.63,0,0,0,4.41,1.19l.42.06.31.05-.12.29a12.59,12.59,0,0,0-.46,7.87A23.69,23.69,0,0,0,181.11,220.57Z" style="fill:#ff9a6c"></path><path d="M170.16,211.43a12.42,12.42,0,0,1,1.23.42c.79.29,1.94.64,3.35,1.17a12.12,12.12,0,0,1,2.24,1.06,2.33,2.33,0,0,1,1,1.08,1.69,1.69,0,0,1-.23,1.57,2.8,2.8,0,0,1-1.26,1,2.88,2.88,0,0,1-1.69.09c-.27-.05-.53-.1-.79-.13a5.7,5.7,0,0,1-.84-.19c-.55-.15-1.08-.34-1.62-.54l-1.43-.54.16-.46a12.28,12.28,0,0,1,2.73,1.49l1.21.79a11.27,11.27,0,0,1,1.19.76,1.69,1.69,0,0,1,.68,1.28,1.12,1.12,0,0,1-.25.71,1.45,1.45,0,0,1-.58.4,5.35,5.35,0,0,1-2.25.3,10.76,10.76,0,0,1-3.11-.8,4.94,4.94,0,0,1-1.06-.49,6.94,6.94,0,0,1,1.12.32,12.42,12.42,0,0,0,3.07.63,5,5,0,0,0,2.08-.32.79.79,0,0,0,.56-.75,1.26,1.26,0,0,0-.54-.94,11.57,11.57,0,0,0-1.15-.71l-1.23-.78a12.79,12.79,0,0,0-2.62-1.43l.15-.46,1.44.54c.53.19,1.06.38,1.58.53a5.69,5.69,0,0,0,.77.18c.28,0,.56.09.82.14a2.35,2.35,0,0,0,1.42-.06,2.29,2.29,0,0,0,1.06-.85,1.26,1.26,0,0,0,.21-1.17,2,2,0,0,0-.82-.89,13,13,0,0,0-2.14-1.08c-1.38-.56-2.52-1-3.29-1.31A4.81,4.81,0,0,1,170.16,211.43Z" style="fill:#ff9a6c"></path><path d="M171.09,206.48a8.38,8.38,0,0,1,2.55.85,19.53,19.53,0,0,1,2.57,1.41c.47.3.94.63,1.41,1a2.51,2.51,0,0,1,1.16,1.62,1.26,1.26,0,0,1-.44,1,1.86,1.86,0,0,1-.93.44,6.2,6.2,0,0,1-1.78,0,21.79,21.79,0,0,1-2.86-.6,7.93,7.93,0,0,1-2.51-1c0-.06,1,.28,2.59.62a26,26,0,0,0,2.83.49,6,6,0,0,0,1.64,0c.51-.08,1-.48,1-1a2.18,2.18,0,0,0-1-1.27c-.45-.36-.91-.7-1.36-1a22.06,22.06,0,0,0-2.47-1.47C172,206.9,171.07,206.55,171.09,206.48Z" style="fill:#ff9a6c"></path><path d="M215.24,227.69l9.07-35.61,17.21-10.6-7.29,61-1.87,4.64c-4.43,9.44-14.12,7.85-22.66,3.67-.3-.15-.6-.3-.89-.46l-25-19.28,8.26-14.26Z" style="fill:#407BFF"></path><path d="M218,238.54c-.16,0-.21-2.53-1.05-5.5s-2.09-5.17-2-5.25a13.49,13.49,0,0,1,2.43,5.12A13.33,13.33,0,0,1,218,238.54Z" style="fill:#263238"></path><path d="M241.54,178.33c-4.48.28-12.59,3-16,9.39-2.87,5.36-3.65,28.28-3.81,28.82l8.64,2.24,11,16.32L286.55,225l2.83,7.12,1.73-51S246,178.06,241.54,178.33Z" style="fill:#407BFF"></path><path d="M294,255.44l3.46-48.73-.8-23.12-21.13-9.31-2.1-8.09-21.87,10.34L247,171.47l-1.92,5.71-4.79,1.56-11.17,19.07.17,31.91s-1.18,39-.24,52.52a4.19,4.19,0,0,0,2.82,3.68,40.11,40.11,0,0,0,12,1.77c22,.53,52-.86,52-.86l.31-1a19.12,19.12,0,0,0,.74-8.33Z" style="fill:#407BFF"></path><path d="M248.68,187.34c.31-1.22.55-2.19.73-2.91.09-.3.15-.55.21-.75s.08-.26.09-.25a.86.86,0,0,1,0,.26l-.15.77c-.16.72-.36,1.7-.63,2.93-.55,2.55-1.37,6.23-2.28,10.79s-1.91,10-2.59,16.14-.87,12.89-1,20c-.14,14.21.23,27.09.48,36.4.12,4.62.23,8.37.3,11,0,1.26.05,2.27.06,3v.78a.8.8,0,0,1,0,.27,1.11,1.11,0,0,1,0-.26q0-.32-.06-.78c0-.74-.09-1.74-.16-3-.12-2.66-.29-6.41-.49-11-.35-9.32-.79-22.19-.64-36.42.08-7.12.32-13.91,1-20.06s1.77-11.6,2.72-16.16" style="fill:#263238"></path><path d="M273.44,166.19s-2.44.71-8.72,4.06-13.15,6.28-13.15,6.28l.53,9.88,23.28-11.68" style="fill:#407BFF"></path><polyline points="246.99 171.47 251.57 176.53 249.12 187.12 245.04 177.55" style="fill:#407BFF"></polyline><g style="opacity:0.30000000000000004"><path d="M251.49,177.63c-.2.15-1.48,12.21-1.48,12.21l23.33-14.09L252.1,186.41Z"></path></g><path d="M251.79,176.45s-.45.77-1.19,2-1.71,3-2.64,5l-.23.48-.14.31-.15-.31a40.1,40.1,0,0,1-1.95-4.93c-.2-.64-.34-1.17-.43-1.53a2.17,2.17,0,0,1-.11-.57,19,19,0,0,1,.75,2c.46,1.26,1.14,3,2,4.86h-.29l.22-.48a41.7,41.7,0,0,1,2.75-4.94c.4-.61.73-1.08,1-1.41A2.4,2.4,0,0,1,251.79,176.45Z" style="fill:#263238"></path><path d="M275.54,174.28a1.5,1.5,0,0,1-.32.19l-.94.49-3.48,1.8c-2.93,1.53-6.95,3.7-11.4,6.08-2.71,1.45-5.28,2.78-7.51,3.9l-.21.1v-.22c0-2.9-.05-5.34-.07-7.11v-2a3.61,3.61,0,0,1,0-.71,5.54,5.54,0,0,1,0,.71c0,.5.05,1.17.08,2,.05,1.76.11,4.2.19,7.1l-.21-.12c2.22-1.14,4.78-2.49,7.49-3.94,4.45-2.37,8.49-4.52,11.45-6,1.48-.74,2.69-1.32,3.52-1.71l1-.44A1.37,1.37,0,0,1,275.54,174.28Z" style="fill:#263238"></path><path d="M228.71,208.28c.13,0,.24,9.22.24,20.58s-.11,20.58-.24,20.58-.25-9.22-.25-20.58S228.57,208.28,228.71,208.28Z" style="fill:#263238"></path><path d="M248.66,178.25a28.25,28.25,0,0,1-.3-6.72s1.53-4.35,1.3-5.12-.61-1.6-2.14-.84a5.94,5.94,0,0,0-3.67,4.66,13.54,13.54,0,0,1-.61,3.44l-1.45-2.22.31-2.29s2.15-.54,2.22-1.69a22.92,22.92,0,0,0-2.17-1.55s-3.87.19-4.26,1.64-1.37,4.58-1.37,4.58-3.21.54-3.59,3.13c0,0-1.83,2.45-1.76,4a7.21,7.21,0,0,0-.91,3.21c.07,1.45,4.27,7.56,4.27,7.56l1.17,8.69,11.91-3.1-.78-8.72S249.27,181.38,248.66,178.25Z" style="fill:#ffbf9d"></path><path d="M248.66,178.19a3.21,3.21,0,0,1,.12.59,8.78,8.78,0,0,1,0,1.75,23.89,23.89,0,0,1-1.79,6.35v-.07c.23,2.44.51,5.39.83,8.72v.15l-.15,0-11.91,3.14-.24.07,0-.25c-.38-2.75-.77-5.67-1.18-8.69l0,.1c-1.08-1.59-2.17-3.24-3.17-5-.25-.44-.49-.9-.72-1.37a3.67,3.67,0,0,1-.44-1.57,7.35,7.35,0,0,1,1-3.07l0,.13a4.09,4.09,0,0,1,.4-1.72,13.07,13.07,0,0,1,1.4-2.41l0,.11a3.58,3.58,0,0,1,1.39-2.29,6.08,6.08,0,0,1,2.4-1l-.19.17,1.41-4.66a1.87,1.87,0,0,1,1-.95,6.11,6.11,0,0,1,1.15-.42,12.48,12.48,0,0,1,2.34-.35h.07l.06,0,1.2.81.59.41.29.22.08.08.06.06a.28.28,0,0,1,.06.18l0,.22a2,2,0,0,1-1,1.13,6.09,6.09,0,0,1-1.33.54l.16-.19c-.1.78-.2,1.55-.31,2.29l0-.14,1.44,2.22-.36,0a14.59,14.59,0,0,0,.53-2.63,6.63,6.63,0,0,1,.6-2.59,7.18,7.18,0,0,1,3.68-3.13,1.29,1.29,0,0,1,1.88.93,1.18,1.18,0,0,1,.09.56,4.51,4.51,0,0,1-.07.53c-.07.33-.14.65-.23,1-.33,1.25-.71,2.36-1.06,3.35v0a31.19,31.19,0,0,0,0,5c.05.57.1,1,.14,1.29a2,2,0,0,1,0,.43,2.49,2.49,0,0,1-.1-.42c-.06-.29-.14-.72-.21-1.28a29.12,29.12,0,0,1-.11-5h0v0c.33-1,.69-2.1,1-3.34.08-.31.15-.62.21-1a3.93,3.93,0,0,0,.06-.48.92.92,0,0,0-.08-.45,1,1,0,0,0-1.46-.71,6.8,6.8,0,0,0-3.46,3A6.53,6.53,0,0,0,244,171a13.14,13.14,0,0,1-.54,2.74l-.13.39-.23-.36-1.46-2.21,0-.06v-.08c.09-.75.19-1.51.3-2.29v-.15l.15,0a5.29,5.29,0,0,0,1.21-.49,1.6,1.6,0,0,0,.82-.87l0-.13h.2a.14.14,0,0,0-.09,0s-.13.08-.09.09h0l-.06,0-.27-.21-.58-.41-1.19-.8.14,0a12.28,12.28,0,0,0-2.24.35c-.7.19-1.53.49-1.77,1.07-.46,1.52-.92,3.07-1.4,4.65l0,.13-.15,0a5.61,5.61,0,0,0-2.18,1,3.06,3.06,0,0,0-1.21,2v.06l0,.05a12.14,12.14,0,0,0-1.35,2.31,3.77,3.77,0,0,0-.36,1.5v.07l0,.07a6.93,6.93,0,0,0-.89,2.84,3.23,3.23,0,0,0,.39,1.36c.22.45.45.89.7,1.33,1,1.74,2.07,3.4,3.14,5l0,.05v0c.4,3,.78,6,1.15,8.7l-.28-.19,11.93-3.06-.14.19c-.28-3.33-.53-6.28-.74-8.72v0l0,0a25.16,25.16,0,0,0,1.89-6.26A9.14,9.14,0,0,0,248.66,178.19Z" style="fill:#ff9a6c"></path><path d="M245.77,177.91a8.59,8.59,0,0,1-1.63-2.31,8,8,0,0,1-1.21-2.56,8.49,8.49,0,0,1,1.64,2.32A8.14,8.14,0,0,1,245.77,177.91Z" style="fill:#ff9a6c"></path><g style="opacity:0.30000000000000004"><path d="M255.47,246.93A38.63,38.63,0,0,0,292.71,217Z"></path></g><path d="M248,195.15l8.82,23.94,25.08-28.87s11-12.37,16.21-5.08,2.55,21.11-.74,27.67c-3.05,6.1-37.56,34.72-42.75,35.3s-11.48.54-14.94-6-11-42.34-11-42.34Z" style="fill:#407BFF"></path><path d="M282.23,189.84s-.14.19-.44.55l-1.32,1.54c-1.19,1.36-2.9,3.34-5.09,5.86l-18.45,21.07-.22.25-.12-.31c-2.66-7.11-5.64-15-8.84-23.57l.27.14-17.71,4.27.18-.27c.61,3.63,1.28,7.46,2,11.34,1.16,6.34,2.36,12.52,3.67,18.45.69,3,1.35,5.87,2.18,8.67a29.18,29.18,0,0,0,1.46,4,12.77,12.77,0,0,0,2.44,3.35,11.36,11.36,0,0,0,7.23,3.06,17.64,17.64,0,0,0,3.85-.15,10.94,10.94,0,0,0,3.55-1.08,77.18,77.18,0,0,0,11.45-7.63c6.67-5.17,11.81-9.69,15.36-12.81l4-3.63,1.06-.95.37-.31s-.11.13-.34.35l-1,1c-.9.86-2.24,2.11-4,3.7-3.51,3.17-8.62,7.73-15.28,12.94-1.66,1.31-3.45,2.63-5.33,4a48.67,48.67,0,0,1-6.15,3.77,11.27,11.27,0,0,1-3.67,1.12,17.79,17.79,0,0,1-3.94.17,11.74,11.74,0,0,1-7.51-3.16,13.27,13.27,0,0,1-2.54-3.47,29.21,29.21,0,0,1-1.5-4.11c-.85-2.81-1.51-5.73-2.2-8.69-1.32-5.94-2.52-12.13-3.68-18.48-.71-3.88-1.38-7.71-2-11.35l0-.22.23-.05,17.71-4.25.2,0,.07.2L257,218.66l-.34-.07,18.58-21,5.17-5.79c.59-.65,1-1.15,1.37-1.5S282.23,189.84,282.23,189.84Z" style="fill:#263238"></path><path d="M295.07,183.69a22.94,22.94,0,0,0-5.36.93,22.7,22.7,0,0,0-4.76,2.61,9.59,9.59,0,0,1,4.6-3.08A9.45,9.45,0,0,1,295.07,183.69Z" style="fill:#263238"></path></g></svg>